<svg width="253" height="48" viewBox="0 0 253 48" fill="none" xmlns="http://www.w3.org/2000/svg">
<path d="M88.91 13C89.29 13.38 89.48 13.87 89.48 14.47C89.48 14.97 89.37 15.48 89.15 16L82.07 34L81.74 34.15L77.78 21.58L72.89 34L72.56 34.15L65.9 13H68.45L73.82 30.76L77.63 21.1L75.08 13H77.63L83 30.76L88.79 16C89.01 15.5 89.12 14.98 89.12 14.44C89.12 13.9 88.97 13.48 88.67 13.18L88.91 13ZM97.187 34.12C95.087 34.12 93.377 33.52 92.057 32.32C90.737 31.12 90.077 29.27 90.077 26.77C90.077 24.27 90.757 22.33 92.117 20.95C93.497 19.57 95.237 18.88 97.337 18.88C99.457 18.88 101.177 19.48 102.497 20.68C103.817 21.88 104.477 23.73 104.477 26.23C104.477 28.73 103.787 30.67 102.407 32.05C101.047 33.43 99.307 34.12 97.187 34.12ZM97.397 19.12C95.877 19.12 94.617 19.8 93.617 21.16C92.617 22.5 92.117 24.38 92.117 26.8C92.117 29.2 92.577 30.98 93.497 32.14C94.417 33.3 95.637 33.88 97.157 33.88C98.677 33.88 99.937 33.21 100.937 31.87C101.937 30.51 102.437 28.63 102.437 26.23C102.437 23.81 101.977 22.02 101.057 20.86C100.137 19.7 98.917 19.12 97.397 19.12ZM112.008 20.29V19.66C111.108 20.02 110.288 20.75 109.548 21.85C108.808 22.93 108.418 23.95 108.378 24.91V34H106.278V19H108.378V23.77C108.698 22.61 109.308 21.52 110.208 20.5C111.108 19.46 112.128 18.92 113.268 18.88H113.388C113.788 18.88 114.118 19.02 114.378 19.3C114.658 19.56 114.798 19.89 114.798 20.29C114.798 20.69 114.658 21.02 114.378 21.28C114.118 21.54 113.788 21.67 113.388 21.67C112.988 21.67 112.658 21.54 112.398 21.28C112.138 21.02 112.008 20.69 112.008 20.29ZM120.869 34C119.109 34 117.999 33.54 117.539 32.62C117.439 32.42 117.389 32.24 117.389 32.08V11.53H119.489V31.87C119.489 32.45 119.599 32.9 119.819 33.22C120.059 33.52 120.299 33.68 120.539 33.7L120.869 33.76H121.799V34H120.869ZM123.475 27.04C123.475 24.44 124.105 22.43 125.365 21.01C126.625 19.59 128.515 18.88 131.035 18.88C132.215 18.88 133.405 19.18 134.605 19.78V11.53H136.705V31.87C136.705 32.45 136.815 32.9 137.035 33.22C137.275 33.52 137.515 33.68 137.755 33.7L138.085 33.76H139.015V34H137.185C136.365 34 135.735 33.82 135.295 33.46C134.875 33.1 134.655 32.74 134.635 32.38L134.605 31.87V31.39C134.225 32.09 133.595 32.71 132.715 33.25C131.835 33.79 130.795 34.06 129.595 34.06C125.515 33.96 123.475 31.62 123.475 27.04ZM129.625 33.82C130.965 33.82 132.115 33.46 133.075 32.74C134.035 32.02 134.545 31.31 134.605 30.61V20.05C133.185 19.43 131.965 19.12 130.945 19.12C129.165 19.12 127.825 19.82 126.925 21.22C126.025 22.6 125.575 24.54 125.575 27.04C125.575 31.56 126.925 33.82 129.625 33.82ZM163.21 13V13.3H153.76V22.3H162.52V22.6H153.76V33.7H163.87V34H151.27V13H163.21ZM165.982 34V33.76C166.402 33.76 166.822 33.6 167.242 33.28C167.682 32.96 168.012 32.64 168.232 32.32L171.982 26.8L166.642 19H168.832L173.422 25.69L177.862 19H178.162L173.542 25.9L179.122 34H176.932L172.102 26.98L168.862 31.84C168.822 31.9 168.772 31.98 168.712 32.08C168.652 32.18 168.522 32.35 168.322 32.59C168.122 32.83 167.912 33.04 167.692 33.22C167.092 33.74 166.522 34 165.982 34ZM181.666 19H183.766V22.72C184.106 21.8 184.736 20.93 185.656 20.11C186.576 19.29 187.616 18.88 188.776 18.88C192.836 18.88 194.866 21.26 194.866 26.02C194.866 31.42 192.246 34.12 187.006 34.12C186.066 34.12 184.986 33.9 183.766 33.46V41.5H181.666V19ZM188.746 19.12C187.506 19.12 186.386 19.66 185.386 20.74C184.386 21.8 183.846 22.76 183.766 23.62V33.19C184.986 33.65 186.056 33.88 186.976 33.88C190.836 33.88 192.766 31.25 192.766 25.99C192.766 21.41 191.426 19.12 188.746 19.12ZM201.084 34C199.324 34 198.214 33.54 197.754 32.62C197.654 32.42 197.604 32.24 197.604 32.08V11.53H199.704V31.87C199.704 32.45 199.814 32.9 200.034 33.22C200.274 33.52 200.514 33.68 200.754 33.7L201.084 33.76H202.014V34H201.084ZM209.892 34.12C207.792 34.12 206.082 33.52 204.762 32.32C203.442 31.12 202.782 29.27 202.782 26.77C202.782 24.27 203.462 22.33 204.822 20.95C206.202 19.57 207.942 18.88 210.042 18.88C212.162 18.88 213.882 19.48 215.202 20.68C216.522 21.88 217.182 23.73 217.182 26.23C217.182 28.73 216.492 30.67 215.112 32.05C213.752 33.43 212.012 34.12 209.892 34.12ZM210.102 19.12C208.582 19.12 207.322 19.8 206.322 21.16C205.322 22.5 204.822 24.38 204.822 26.8C204.822 29.2 205.282 30.98 206.202 32.14C207.122 33.3 208.342 33.88 209.862 33.88C211.382 33.88 212.642 33.21 213.642 31.87C214.642 30.51 215.142 28.63 215.142 26.23C215.142 23.81 214.682 22.02 213.762 20.86C212.842 19.7 211.622 19.12 210.102 19.12ZM224.713 20.29V19.66C223.813 20.02 222.993 20.75 222.253 21.85C221.513 22.93 221.123 23.95 221.083 24.91V34H218.983V19H221.083V23.77C221.403 22.61 222.013 21.52 222.913 20.5C223.813 19.46 224.833 18.92 225.973 18.88H226.093C226.493 18.88 226.823 19.02 227.083 19.3C227.363 19.56 227.503 19.89 227.503 20.29C227.503 20.69 227.363 21.02 227.083 21.28C226.823 21.54 226.493 21.67 226.093 21.67C225.693 21.67 225.363 21.54 225.103 21.28C224.843 21.02 224.713 20.69 224.713 20.29ZM230.896 26.68C230.896 29.16 231.326 30.98 232.186 32.14C233.066 33.3 234.216 33.88 235.636 33.88C237.636 33.88 239.416 33.58 240.976 32.98L241.066 33.19C239.466 33.81 237.656 34.12 235.636 34.12C233.636 34.12 232.006 33.52 230.746 32.32C229.486 31.12 228.856 29.27 228.856 26.77C228.856 24.27 229.516 22.33 230.836 20.95C232.156 19.57 233.836 18.88 235.876 18.88C237.516 18.88 238.896 19.37 240.016 20.35C241.136 21.33 241.696 22.78 241.696 24.7C241.696 24.8 241.696 24.9 241.696 25H230.986C230.926 25.54 230.896 26.1 230.896 26.68ZM239.656 24.76C239.636 22.84 239.266 21.42 238.546 20.5C237.826 19.58 236.896 19.12 235.756 19.12C234.616 19.12 233.596 19.62 232.696 20.62C231.816 21.62 231.256 23 231.016 24.76H239.656ZM248.649 20.29V19.66C247.749 20.02 246.929 20.75 246.189 21.85C245.449 22.93 245.059 23.95 245.019 24.91V34H242.919V19H245.019V23.77C245.339 22.61 245.949 21.52 246.849 20.5C247.749 19.46 248.769 18.92 249.909 18.88H250.029C250.429 18.88 250.759 19.02 251.019 19.3C251.299 19.56 251.439 19.89 251.439 20.29C251.439 20.69 251.299 21.02 251.019 21.28C250.759 21.54 250.429 21.67 250.029 21.67C249.629 21.67 249.299 21.54 249.039 21.28C248.779 21.02 248.649 20.69 248.649 20.29Z" fill="black"/>
<path d="M24 48C20.75 48 17.6406 47.3672 14.6719 46.1016C11.7031 44.8359 9.14844 43.1328 7.00781 40.9922C4.86719 38.8516 3.16406 36.2969 1.89844 33.3281C0.632812 30.3594 0 27.25 0 24C0 20.75 0.632812 17.6406 1.89844 14.6719C3.16406 11.7031 4.86719 9.14844 7.00781 7.00781C9.14844 4.86719 11.7031 3.16406 14.6719 1.89844C17.6406 0.632812 20.75 0 24 0C27.25 0 30.3594 0.632812 33.3281 1.89844C36.2969 3.16406 38.8516 4.86719 40.9922 7.00781C43.1328 9.14844 44.8359 11.7031 46.1016 14.6719C47.3672 17.6406 48 20.75 48 24C48 27.25 47.3672 30.3594 46.1016 33.3281C44.8359 36.2969 43.1328 38.8516 40.9922 40.9922C38.8516 43.1328 36.2969 44.8359 33.3281 46.1016C30.3594 47.3672 27.25 48 24 48ZM13.7344 13.7344L11.4844 11.7656C11.1406 11.7656 10.7344 11.8047 10.2656 11.8828C9.79688 11.9609 9.375 12 9 12C8.96875 11.9687 8.6875 11.3906 8.15625 10.2656C4.71875 14.2344 3 18.8125 3 24C3 24.0938 3.00781 24.2188 3.02344 24.375C3.03906 24.5312 3.04688 24.6406 3.04688 24.7031C3.23438 24.8906 3.69531 25.2422 4.42969 25.7578C5.16406 26.2734 5.6875 26.6875 6 27H9C9.09375 26.9375 9.17969 26.8906 9.25781 26.8594C9.33594 26.8281 9.42188 26.7969 9.51562 26.7656C9.20313 26.4219 8.74219 25.9141 8.13281 25.2422C7.52344 24.5703 7.0625 24.0781 6.75 23.7656C6.875 23.0469 7.04688 21.9609 7.26562 20.5078C7.48437 19.0547 7.64062 17.9687 7.73438 17.25C10.4219 16.125 12.4219 15.2969 13.7344 14.7656V13.7344ZM23.1562 6.09375C22.7188 5.90625 22.3125 5.73437 21.9375 5.57812C21.8438 5.32812 21.7813 5.14063 21.75 5.01562C21.5625 5.60938 21.2656 6.5 20.8594 7.6875C20.9844 7.71875 21.1641 7.75 21.3984 7.78125C21.6328 7.8125 21.8125 7.84375 21.9375 7.875H23.1562V6.09375ZM22.9688 28.1719C22.8125 28.3281 22.7031 28.4531 22.6406 28.5469C22.2656 29.2031 21.7344 30.2031 21.0469 31.5469C20.3594 32.8906 19.8438 33.8906 19.5 34.5469C19.9375 35.2031 20.6016 36.2031 21.4922 37.5469C22.3828 38.8906 23.0469 39.8906 23.4844 40.5469C27.5469 40.7969 30.625 40.9844 32.7188 41.1094C32.7813 41.8906 33.0313 42.4219 33.4688 42.7031C36.3125 41.2656 38.7188 39.2734 40.6875 36.7266C42.6562 34.1797 43.9531 31.3281 44.5781 28.1719C43.9844 28.0469 43.3359 27.875 42.6328 27.6562C41.9297 27.4375 41.4219 27.2891 41.1094 27.2109C40.7969 27.1328 40.1797 27.0547 39.2578 26.9766C38.3359 26.8984 37.375 26.9531 36.375 27.1406C36 27.1719 35.7578 26.9297 35.6484 26.4141C35.5391 25.8984 35.4844 25.3672 35.4844 24.8203C35.4844 24.2734 35.4219 23.9844 35.2969 23.9531C34.6094 23.8281 33.2188 23.9453 31.125 24.3047C29.0312 24.6641 27.6406 24.7813 26.9531 24.6562C26.5469 25.0312 25.2188 26.2031 22.9688 28.1719ZM25.7344 4.6875C25.6406 5.3125 25.4766 6.25 25.2422 7.5C25.0078 8.75 24.8281 9.70312 24.7031 10.3594C24.8594 10.3281 25.1172 10.2891 25.4766 10.2422C25.8359 10.1953 26.0938 10.1719 26.25 10.1719C26.1562 10.1094 26.0469 10.0469 25.9219 9.98438C26.3906 9.82813 26.7344 9.70312 26.9531 9.60938C26.4219 7.42187 26.0156 5.78125 25.7344 4.6875ZM31.1719 4.26562C31.1094 4.60938 31.0781 5.09375 31.0781 5.71875C31.0781 6.34375 30.9219 7.17188 30.6094 8.20312C30.6406 8.26563 30.7031 8.32812 30.7969 8.39062C31.4219 8.32812 32.4687 8.21875 33.9375 8.0625C33.9375 7.40625 34.2656 6.75 34.9219 6.09375C33.7344 5.375 32.4844 4.76563 31.1719 4.26562ZM37.0312 7.54688C36.9687 7.67188 36.8594 7.84375 36.7031 8.0625C37.2969 8.15625 37.6875 8.23437 37.875 8.29688C37.5 7.95312 37.2188 7.70312 37.0312 7.54688ZM38.2969 8.67188C38.2031 8.85938 38.0547 9.14062 37.8516 9.51562C37.6484 9.89062 37.5 10.1719 37.4062 10.3594C36.5 10.3906 35.2813 10.4375 33.75 10.5L33.5625 8.90625C33.5 8.9375 33.3906 8.97656 33.2344 9.02344C33.0781 9.07031 32.9531 9.09375 32.8594 9.09375V11.3906C32.2031 11.4531 31.1953 11.5469 29.8359 11.6719C28.4766 11.7969 27.4688 11.8906 26.8125 11.9531C26.5938 12.2656 26.3594 12.6094 26.1094 12.9844C26.9531 14.7969 27.5938 16.1562 28.0312 17.0625C27.4063 17.2187 26.125 17.5625 24.1875 18.0938V19.6875C24.1875 19.75 24.2109 19.8437 24.2578 19.9688C24.3047 20.0938 24.3437 20.1875 24.375 20.25C24.9062 20.5 25.7344 20.875 26.8594 21.375C27.9844 21.875 28.8281 22.2656 29.3906 22.5469L30.4219 21.2812C30.3906 20.9688 30.3125 20.4766 30.1875 19.8047C30.0625 19.1328 29.9688 18.625 29.9062 18.2812C30 18.2187 30.1484 18.1328 30.3516 18.0234C30.5547 17.9141 30.7031 17.8281 30.7969 17.7656C31.6406 17.5156 32.2813 17.3438 32.7188 17.25C33.125 17.9062 33.6953 18.8438 34.4297 20.0625C35.1641 21.2812 35.625 22.0469 35.8125 22.3594C36.0938 22.1094 36.4844 21.7266 36.9844 21.2109C37.4844 20.6953 37.8594 20.3125 38.1094 20.0625C36.4219 18.875 35.3125 18.1094 34.7812 17.7656C34.8125 17.5156 34.875 17.1562 34.9688 16.6875H36.7031C38.4531 18.1875 40.25 19.7188 42.0938 21.2812C42.125 21.2812 42.1562 21.2578 42.1875 21.2109C42.2188 21.1641 42.25 21.1406 42.2812 21.1406C42.1562 20.8906 41.75 20.125 41.0625 18.8438C41.0625 18.8125 41.1094 18.75 41.2031 18.6562L41.3906 18.4688H43.3125C43.3438 18.4375 43.6094 18.2969 44.1094 18.0469C43.0469 14.4219 41.1094 11.2969 38.2969 8.67188Z" fill="black"/>
</svg>
